<?xml version="1.0" encoding="utf-8"?>
<!-- Generator: Adobe Illustrator 16.0.0, SVG Export Plug-In . SVG Version: 6.00 Build 0)  -->
<!DOCTYPE svg PUBLIC "-//W3C//DTD SVG 1.1//EN" "http://www.w3.org/Graphics/SVG/1.1/DTD/svg11.dtd">
<svg version="1.1" id="图层_1" xmlns="http://www.w3.org/2000/svg" xmlns:xlink="http://www.w3.org/1999/xlink" x="0px" y="0px"
	 width="256px" height="256px" viewBox="0 0 256 256" enable-background="new 0 0 256 256" xml:space="preserve">
<g>
	<path fill="#FFFFFF" d="M126.208,196.84c-0.718,0-1.498-0.315-1.987-0.805l-26.368-26.368c-0.489-0.489-0.805-1.27-0.805-1.987
		V79.104c0-1.565,1.227-2.792,2.792-2.792s2.792,1.227,2.792,2.792v87.394l23.576,23.576l23.832-23.832V67.816H116.2v82.042
		l10.776,10.776l9.24-9.239V91.904c0-1.565,1.227-2.792,2.792-2.792s2.792,1.227,2.792,2.792v60.928
		c0,0.718-0.315,1.498-0.805,1.986l-12.032,12.033c-0.561,0.561-1.266,0.869-1.987,0.869c-0.721,0-1.426-0.309-1.987-0.869
		l-13.568-13.568c-0.489-0.488-0.805-1.269-0.805-1.987V65.024c0-1.565,1.227-2.792,2.792-2.792h39.424
		c1.565,0,2.792,1.227,2.792,2.792v102.4c0,0.72-0.316,1.5-0.807,1.988l-26.526,26.526
		C127.736,196.84,126.751,196.84,126.208,196.84z"/>
	<path fill="#FFFFFF" d="M126.208,195.84c-0.512,0-1.024-0.256-1.28-0.512L98.56,168.96c-0.256-0.256-0.512-0.769-0.512-1.28V79.104
		c0-1.024,0.768-1.792,1.792-1.792s1.792,0.768,1.792,1.792v87.808l24.576,24.576l24.832-24.832v-99.84H115.2v83.456l11.776,11.776
		l10.24-10.239V91.904c0-1.024,0.769-1.792,1.792-1.792c1.024,0,1.792,0.768,1.792,1.792v60.928c0,0.512-0.256,1.023-0.512,1.279
		l-12.032,12.033c-0.768,0.768-1.792,0.768-2.56,0l-13.568-13.568c-0.256-0.256-0.512-0.768-0.512-1.28V65.024
		c0-1.024,0.768-1.792,1.792-1.792h39.424c1.023,0,1.792,0.768,1.792,1.792v102.4c0,0.512-0.256,1.024-0.513,1.28l-26.624,26.624
		C127.232,195.84,126.72,195.84,126.208,195.84z"/>
</g>
</svg>
